<svg width="100" height="80" fill="none" xmlns="http://www.w3.org/2000/svg"><path d="M97.5 55H95V38.11a7.5 7.5 0 0 0-2.203-5.297l-15.61-15.61A7.5 7.5 0 0 0 71.891 15H65V7.5C65 3.36 61.64 0 57.5 0h-50C3.36 0 0 3.36 0 7.5v50C0 61.64 3.36 65 7.5 65H10c0 8.281 6.719 15 15 15 8.281 0 15-6.719 15-15h20c0 8.281 6.719 15 15 15 8.281 0 15-6.719 15-15h7.5c1.375 0 2.5-1.125 2.5-2.5v-5c0-1.375-1.125-2.5-2.5-2.5ZM25 72.5c-4.14 0-7.5-3.36-7.5-7.5 0-4.14 3.36-7.5 7.5-7.5 4.14 0 7.5 3.36 7.5 7.5 0 4.14-3.36 7.5-7.5 7.5Zm22.5-38.75c0 .688-.563 1.25-1.25 1.25H37.5v8.75c0 .688-.563 1.25-1.25 1.25h-7.5c-.688 0-1.25-.563-1.25-1.25V35h-8.75c-.688 0-1.25-.563-1.25-1.25v-7.5c0-.688.563-1.25 1.25-1.25h8.75v-8.75c0-.688.563-1.25 1.25-1.25h7.5c.688 0 1.25.563 1.25 1.25V25h8.75c.688 0 1.25.563 1.25 1.25v7.5ZM75 72.5c-4.14 0-7.5-3.36-7.5-7.5 0-4.14 3.36-7.5 7.5-7.5 4.14 0 7.5 3.36 7.5 7.5 0 4.14-3.36 7.5-7.5 7.5ZM87.5 40H65V22.5h6.89L87.5 38.11V40Z" fill="#fff"/></svg>