<svg width="56" height="56" viewBox="0 0 56 56" fill="none" xmlns="http://www.w3.org/2000/svg">
<circle cx="28" cy="28" r="26.5" stroke="#653819" stroke-width="3"/>
<path d="M15.3327 35.9331C15.1713 35.9331 15.0393 35.8818 14.9367 35.7791C14.834 35.6764 14.7827 35.5518 14.7827 35.4051V21.0831C14.7827 20.9218 14.834 20.7898 14.9367 20.6871C15.0393 20.5844 15.1713 20.5331 15.3327 20.5331H17.0707C17.276 20.5331 17.43 20.5918 17.5327 20.7091C17.6353 20.8118 17.7013 20.8924 17.7307 20.9511L21.9767 28.8711L26.2667 20.9511C26.296 20.8924 26.362 20.8118 26.4647 20.7091C26.5673 20.5918 26.7213 20.5331 26.9267 20.5331H28.6427C28.804 20.5331 28.936 20.5844 29.0387 20.6871C29.1413 20.7898 29.1927 20.9218 29.1927 21.0831V35.4051C29.1927 35.5518 29.1413 35.6764 29.0387 35.7791C28.936 35.8818 28.804 35.9331 28.6427 35.9331H26.7947C26.6333 35.9331 26.5013 35.8818 26.3987 35.7791C26.3107 35.6764 26.2667 35.5518 26.2667 35.4051V25.8791L23.1867 31.7531C23.1133 31.8851 23.018 32.0024 22.9007 32.1051C22.7833 32.1931 22.6293 32.2371 22.4387 32.2371H21.5367C21.3313 32.2371 21.17 32.1931 21.0527 32.1051C20.95 32.0024 20.862 31.8851 20.7887 31.7531L17.7087 25.8791V35.4051C17.7087 35.5518 17.6573 35.6764 17.5547 35.7791C17.452 35.8818 17.3273 35.9331 17.1807 35.9331H15.3327ZM34.4847 36.1531C33.1207 36.1531 31.962 35.9184 31.0087 35.4491C30.07 34.9651 29.3513 34.2831 28.8527 33.4031C28.354 32.5084 28.0753 31.4378 28.0167 30.1911C28.002 29.5898 27.9947 28.9444 27.9947 28.2551C27.9947 27.5658 28.002 26.9058 28.0167 26.2751C28.0753 25.0431 28.354 23.9798 28.8527 23.0851C29.366 22.1904 30.092 21.5084 31.0307 21.0391C31.984 20.5551 33.1353 20.3131 34.4847 20.3131C35.482 20.3131 36.3767 20.4451 37.1687 20.7091C37.9607 20.9731 38.6353 21.3398 39.1927 21.8091C39.75 22.2638 40.1827 22.7991 40.4907 23.4151C40.7987 24.0311 40.96 24.6984 40.9747 25.4171C40.9893 25.5491 40.9453 25.6591 40.8427 25.7471C40.7547 25.8351 40.6447 25.8791 40.5127 25.8791H38.4227C38.2613 25.8791 38.1293 25.8424 38.0267 25.7691C37.924 25.6811 37.8507 25.5418 37.8067 25.3511C37.572 24.3831 37.1687 23.7231 36.5967 23.3711C36.0247 23.0191 35.3133 22.8431 34.4627 22.8431C33.48 22.8431 32.6953 23.1218 32.1087 23.6791C31.522 24.2218 31.2067 25.1238 31.1627 26.3851C31.1187 27.5878 31.1187 28.8198 31.1627 30.0811C31.2067 31.3424 31.522 32.2518 32.1087 32.8091C32.6953 33.3518 33.48 33.6231 34.4627 33.6231C35.3133 33.6231 36.0247 33.4471 36.5967 33.0951C37.1687 32.7284 37.572 32.0684 37.8067 31.1151C37.8507 30.9098 37.924 30.7704 38.0267 30.6971C38.1293 30.6238 38.2613 30.5871 38.4227 30.5871H40.5127C40.6447 30.5871 40.7547 30.6311 40.8427 30.7191C40.9453 30.8071 40.9893 30.9171 40.9747 31.0491C40.96 31.7678 40.7987 32.4351 40.4907 33.0511C40.1827 33.6671 39.75 34.2098 39.1927 34.6791C38.6353 35.1338 37.9607 35.4931 37.1687 35.7571C36.3767 36.0211 35.482 36.1531 34.4847 36.1531Z" fill="white"/>
</svg>
