<svg width="24" height="18" fill="none" xmlns="http://www.w3.org/2000/svg"><path d="M23.545 5.944a.282.282 0 0 1 .455.22v9.586A2.25 2.25 0 0 1 21.75 18H2.25A2.25 2.25 0 0 1 0 15.75V6.169a.28.28 0 0 1 .455-.22c1.05.815 2.442 1.851 7.223 5.324.99.722 2.658 2.241 4.322 2.232 1.673.014 3.375-1.538 4.327-2.232 4.78-3.473 6.168-4.514 7.218-5.33ZM12 12c1.088.019 2.653-1.369 3.44-1.94 6.22-4.515 6.694-4.908 8.129-6.033.272-.211.431-.54.431-.886V2.25A2.25 2.25 0 0 0 21.75 0H2.25A2.25 2.25 0 0 0 0 2.25v.89c0 .347.16.67.431.887 1.435 1.12 1.908 1.518 8.128 6.032.788.572 2.354 1.96 3.441 1.941Z" fill="#fff"/></svg>