<svg width="76" height="100" fill="none" xmlns="http://www.w3.org/2000/svg"><path d="M19.469 70.826c-1.698-1.697-.813-1.218-4.907-2.314-1.857-.498-3.49-1.455-4.966-2.602L.734 87.637c-.857 2.103.745 4.388 3.014 4.303l10.291-.393 7.078 7.477c1.563 1.648 4.305 1.134 5.162-.97L36.445 73.13C34.328 74.309 31.98 75 29.55 75a14.165 14.165 0 0 1-10.08-4.174Zm55.797 16.81L66.404 65.91c-1.476 1.149-3.11 2.104-4.966 2.602-4.116 1.101-3.213.62-4.907 2.314A14.17 14.17 0 0 1 46.45 75c-2.43 0-4.78-.693-6.896-1.871l10.166 24.926c.857 2.103 3.601 2.617 5.162.968l7.08-7.476 10.291.393c2.27.085 3.871-2.202 3.014-4.303Zm-23.399-21.23c2.985-3.037 3.326-2.775 7.576-3.933 2.713-.74 4.834-2.899 5.56-5.66 1.462-5.547 1.083-4.877 5.07-8.936a8.102 8.102 0 0 0 2.034-7.73c-1.459-5.543-1.46-4.77 0-10.319a8.102 8.102 0 0 0-2.035-7.73c-3.986-4.059-3.607-3.39-5.068-8.936-.727-2.762-2.848-4.92-5.56-5.66-5.446-1.486-4.79-1.098-8.78-5.158A7.771 7.771 0 0 0 43.068.272c-5.443 1.484-4.683 1.486-10.136 0a7.767 7.767 0 0 0-7.596 2.072c-3.986 4.058-3.33 3.672-8.777 5.158-2.713.74-4.834 2.898-5.56 5.66-1.46 5.545-1.083 4.877-5.07 8.936a8.097 8.097 0 0 0-2.034 7.73c1.459 5.54 1.46 4.766 0 10.317a8.107 8.107 0 0 0 2.035 7.732c3.986 4.059 3.607 3.389 5.068 8.936.727 2.761 2.848 4.92 5.56 5.66 4.372 1.191 4.698 1.004 7.575 3.933a7.762 7.762 0 0 0 9.715 1.137 7.749 7.749 0 0 1 8.306 0 7.76 7.76 0 0 0 9.713-1.137ZM19.574 34.367c0-10.357 8.25-18.754 18.426-18.754 10.176 0 18.426 8.397 18.426 18.754 0 10.358-8.25 18.754-18.426 18.754-10.176 0-18.426-8.396-18.426-18.754Z" fill="#fff"/></svg>