<svg width="172" height="56" viewBox="0 0 172 56" fill="none" xmlns="http://www.w3.org/2000/svg">
<circle cx="28" cy="28" r="26.5" stroke="#653819" stroke-width="3"/>
<path d="M15.3327 35.9336C15.1713 35.9336 15.0393 35.8823 14.9367 35.7796C14.834 35.6769 14.7827 35.5523 14.7827 35.4056V21.0836C14.7827 20.9223 14.834 20.7903 14.9367 20.6876C15.0393 20.5849 15.1713 20.5336 15.3327 20.5336H17.0707C17.276 20.5336 17.43 20.5923 17.5327 20.7096C17.6353 20.8123 17.7013 20.8929 17.7307 20.9516L21.9767 28.8716L26.2667 20.9516C26.296 20.8929 26.362 20.8123 26.4647 20.7096C26.5673 20.5923 26.7213 20.5336 26.9267 20.5336H28.6427C28.804 20.5336 28.936 20.5849 29.0387 20.6876C29.1413 20.7903 29.1927 20.9223 29.1927 21.0836V35.4056C29.1927 35.5523 29.1413 35.6769 29.0387 35.7796C28.936 35.8823 28.804 35.9336 28.6427 35.9336H26.7947C26.6333 35.9336 26.5013 35.8823 26.3987 35.7796C26.3107 35.6769 26.2667 35.5523 26.2667 35.4056V25.8796L23.1867 31.7536C23.1133 31.8856 23.018 32.0029 22.9007 32.1056C22.7833 32.1936 22.6293 32.2376 22.4387 32.2376H21.5367C21.3313 32.2376 21.17 32.1936 21.0527 32.1056C20.95 32.0029 20.862 31.8856 20.7887 31.7536L17.7087 25.8796V35.4056C17.7087 35.5523 17.6573 35.6769 17.5547 35.7796C17.452 35.8823 17.3273 35.9336 17.1807 35.9336H15.3327ZM34.4847 36.1536C33.1207 36.1536 31.962 35.9189 31.0087 35.4496C30.07 34.9656 29.3513 34.2836 28.8527 33.4036C28.354 32.5089 28.0753 31.4383 28.0167 30.1916C28.002 29.5903 27.9947 28.9449 27.9947 28.2556C27.9947 27.5663 28.002 26.9063 28.0167 26.2756C28.0753 25.0436 28.354 23.9803 28.8527 23.0856C29.366 22.1909 30.092 21.5089 31.0307 21.0396C31.984 20.5556 33.1353 20.3136 34.4847 20.3136C35.482 20.3136 36.3767 20.4456 37.1687 20.7096C37.9607 20.9736 38.6353 21.3403 39.1927 21.8096C39.75 22.2643 40.1827 22.7996 40.4907 23.4156C40.7987 24.0316 40.96 24.6989 40.9747 25.4176C40.9893 25.5496 40.9453 25.6596 40.8427 25.7476C40.7547 25.8356 40.6447 25.8796 40.5127 25.8796H38.4227C38.2613 25.8796 38.1293 25.8429 38.0267 25.7696C37.924 25.6816 37.8507 25.5423 37.8067 25.3516C37.572 24.3836 37.1687 23.7236 36.5967 23.3716C36.0247 23.0196 35.3133 22.8436 34.4627 22.8436C33.48 22.8436 32.6953 23.1223 32.1087 23.6796C31.522 24.2223 31.2067 25.1243 31.1627 26.3856C31.1187 27.5883 31.1187 28.8203 31.1627 30.0816C31.2067 31.3429 31.522 32.2523 32.1087 32.8096C32.6953 33.3523 33.48 33.6236 34.4627 33.6236C35.3133 33.6236 36.0247 33.4476 36.5967 33.0956C37.1687 32.7289 37.572 32.0689 37.8067 31.1156C37.8507 30.9103 37.924 30.7709 38.0267 30.6976C38.1293 30.6243 38.2613 30.5876 38.4227 30.5876H40.5127C40.6447 30.5876 40.7547 30.6316 40.8427 30.7196C40.9453 30.8076 40.9893 30.9176 40.9747 31.0496C40.96 31.7683 40.7987 32.4356 40.4907 33.0516C40.1827 33.6676 39.75 34.2103 39.1927 34.6796C38.6353 35.1343 37.9607 35.4936 37.1687 35.7576C36.3767 36.0216 35.482 36.1536 34.4847 36.1536Z" fill="white"/>
<path d="M64.939 24V11.31H67.261L71.545 19.104L75.811 11.31H78.097V24H75.559V16.26L72.283 22.092H70.717L67.459 16.314V24H64.939ZM80.6706 24V11.31H83.4606V24H80.6706ZM85.9968 24V11.31H88.0668L94.4028 19.392V11.31H96.9948V24H94.9428L88.5888 15.9V24H85.9968ZM105.831 24.198C104.403 24.198 103.191 23.928 102.195 23.388C101.211 22.848 100.461 22.092 99.9455 21.12C99.4295 20.148 99.1715 19.008 99.1715 17.7C99.1715 16.356 99.4355 15.192 99.9635 14.208C100.503 13.224 101.277 12.462 102.285 11.922C103.293 11.382 104.505 11.112 105.921 11.112C106.809 11.112 107.649 11.238 108.441 11.49C109.245 11.742 109.899 12.078 110.403 12.498L109.503 14.676C108.951 14.268 108.387 13.98 107.811 13.812C107.235 13.632 106.611 13.542 105.939 13.542C104.655 13.542 103.689 13.902 103.041 14.622C102.405 15.33 102.087 16.356 102.087 17.7C102.087 19.056 102.411 20.082 103.059 20.778C103.719 21.474 104.691 21.822 105.975 21.822C106.659 21.822 107.379 21.714 108.135 21.498V19.014H105.399V16.998H110.439V23.226C109.815 23.538 109.095 23.778 108.279 23.946C107.463 24.114 106.647 24.198 105.831 24.198ZM112.909 24V11.31H118.723C120.079 11.31 121.123 11.604 121.855 12.192C122.599 12.78 122.971 13.584 122.971 14.604C122.971 15.276 122.803 15.858 122.467 16.35C122.131 16.83 121.663 17.19 121.063 17.43C121.783 17.634 122.335 17.994 122.719 18.51C123.115 19.026 123.313 19.662 123.313 20.418C123.313 21.546 122.917 22.428 122.125 23.064C121.345 23.688 120.277 24 118.921 24H112.909ZM115.573 16.53H118.237C119.605 16.53 120.289 16.002 120.289 14.946C120.289 13.902 119.605 13.38 118.237 13.38H115.573V16.53ZM115.573 21.93H118.543C119.263 21.93 119.791 21.792 120.127 21.516C120.463 21.24 120.631 20.82 120.631 20.256C120.631 19.704 120.463 19.29 120.127 19.014C119.791 18.738 119.263 18.6 118.543 18.6H115.573V21.93ZM131.31 24.198C130.062 24.198 128.964 23.928 128.016 23.388C127.08 22.836 126.348 22.074 125.82 21.102C125.304 20.118 125.046 18.966 125.046 17.646C125.046 16.326 125.304 15.18 125.82 14.208C126.348 13.224 127.08 12.462 128.016 11.922C128.952 11.382 130.05 11.112 131.31 11.112C132.57 11.112 133.668 11.382 134.604 11.922C135.552 12.462 136.284 13.224 136.8 14.208C137.328 15.18 137.592 16.32 137.592 17.628C137.592 18.948 137.328 20.1 136.8 21.084C136.284 22.068 135.552 22.836 134.604 23.388C133.668 23.928 132.57 24.198 131.31 24.198ZM131.31 21.822C132.366 21.822 133.188 21.456 133.776 20.724C134.376 19.98 134.676 18.954 134.676 17.646C134.676 16.326 134.382 15.306 133.794 14.586C133.206 13.854 132.378 13.488 131.31 13.488C130.266 13.488 129.444 13.854 128.844 14.586C128.256 15.306 127.962 16.326 127.962 17.646C127.962 18.954 128.256 19.98 128.844 20.724C129.444 21.456 130.266 21.822 131.31 21.822ZM144.287 24.198C143.291 24.198 142.349 24.072 141.461 23.82C140.585 23.568 139.853 23.226 139.265 22.794L140.075 20.598C140.639 20.994 141.281 21.306 142.001 21.534C142.733 21.762 143.495 21.876 144.287 21.876C145.151 21.876 145.769 21.744 146.141 21.48C146.525 21.204 146.717 20.862 146.717 20.454C146.717 20.106 146.585 19.83 146.321 19.626C146.057 19.422 145.595 19.248 144.935 19.104L142.901 18.672C140.633 18.192 139.499 17.016 139.499 15.144C139.499 14.34 139.715 13.638 140.147 13.038C140.579 12.426 141.179 11.952 141.947 11.616C142.727 11.28 143.627 11.112 144.647 11.112C145.523 11.112 146.345 11.238 147.113 11.49C147.881 11.742 148.517 12.096 149.021 12.552L148.211 14.604C147.227 13.824 146.033 13.434 144.629 13.434C143.873 13.434 143.285 13.584 142.865 13.884C142.457 14.172 142.253 14.55 142.253 15.018C142.253 15.366 142.379 15.648 142.631 15.864C142.883 16.08 143.321 16.254 143.945 16.386L145.979 16.818C148.307 17.322 149.471 18.462 149.471 20.238C149.471 21.03 149.255 21.726 148.823 22.326C148.403 22.914 147.803 23.376 147.023 23.712C146.255 24.036 145.343 24.198 144.287 24.198ZM151.282 24V11.31H154.072V16.404H159.976V11.31H162.766V24H159.976V18.726H154.072V24H151.282ZM165.327 24V11.31H168.117V24H165.327ZM79.4909 49.198C78.1229 49.198 76.9529 48.928 75.9809 48.388C75.0089 47.848 74.2589 47.092 73.7309 46.12C73.2149 45.136 72.9569 43.978 72.9569 42.646C72.9569 41.326 73.2149 40.18 73.7309 39.208C74.2589 38.224 75.0089 37.462 75.9809 36.922C76.9529 36.382 78.1229 36.112 79.4909 36.112C80.3309 36.112 81.1349 36.244 81.9029 36.508C82.6709 36.772 83.3009 37.132 83.7929 37.588L82.9289 39.802C82.3889 39.382 81.8429 39.076 81.2909 38.884C80.7509 38.68 80.1809 38.578 79.5809 38.578C78.3689 38.578 77.4509 38.932 76.8269 39.64C76.2149 40.336 75.9089 41.338 75.9089 42.646C75.9089 43.954 76.2149 44.962 76.8269 45.67C77.4509 46.378 78.3689 46.732 79.5809 46.732C80.1809 46.732 80.7509 46.636 81.2909 46.444C81.8429 46.24 82.3889 45.928 82.9289 45.508L83.7929 47.722C83.3009 48.166 82.6709 48.526 81.9029 48.802C81.1349 49.066 80.3309 49.198 79.4909 49.198ZM86.702 49V36.31H95.396V38.488H89.366V41.458H95V43.654H89.366V46.822H95.396V49H86.702ZM98.6804 49V36.31H104.476C105.892 36.31 106.984 36.652 107.752 37.336C108.52 38.02 108.904 38.974 108.904 40.198C108.904 41.146 108.658 41.938 108.166 42.574C107.686 43.198 106.996 43.624 106.096 43.852C106.732 44.044 107.254 44.506 107.662 45.238L109.714 49H106.636L104.44 44.95C104.26 44.626 104.038 44.404 103.774 44.284C103.51 44.152 103.198 44.086 102.838 44.086H101.47V49H98.6804ZM101.47 42.07H103.972C105.472 42.07 106.222 41.47 106.222 40.27C106.222 39.082 105.472 38.488 103.972 38.488H101.47V42.07ZM110.59 49L116.422 36.31H118.672L124.504 49H121.696L120.508 46.246H114.586L113.416 49H110.59ZM117.52 39.28L115.522 44.068H119.59L117.556 39.28H117.52ZM126.716 49V36.31H129.038L133.322 44.104L137.588 36.31H139.874V49H137.336V41.26L134.06 47.092H132.494L129.236 41.314V49H126.716ZM143.528 49V36.31H146.318V49H143.528ZM156.09 49.198C154.722 49.198 153.552 48.928 152.58 48.388C151.608 47.848 150.858 47.092 150.33 46.12C149.814 45.136 149.556 43.978 149.556 42.646C149.556 41.326 149.814 40.18 150.33 39.208C150.858 38.224 151.608 37.462 152.58 36.922C153.552 36.382 154.722 36.112 156.09 36.112C156.93 36.112 157.734 36.244 158.502 36.508C159.27 36.772 159.9 37.132 160.392 37.588L159.528 39.802C158.988 39.382 158.442 39.076 157.89 38.884C157.35 38.68 156.78 38.578 156.18 38.578C154.968 38.578 154.05 38.932 153.426 39.64C152.814 40.336 152.508 41.338 152.508 42.646C152.508 43.954 152.814 44.962 153.426 45.67C154.05 46.378 154.968 46.732 156.18 46.732C156.78 46.732 157.35 46.636 157.89 46.444C158.442 46.24 158.988 45.928 159.528 45.508L160.392 47.722C159.9 48.166 159.27 48.526 158.502 48.802C157.734 49.066 156.93 49.198 156.09 49.198Z" fill="white"/>
</svg>
