<svg width="173" height="56" viewBox="0 0 173 56" fill="none" xmlns="http://www.w3.org/2000/svg">
<circle cx="28.5" cy="28" r="26.5" stroke="#653819" stroke-width="3"/>
<path d="M15.8327 35.9333C15.6713 35.9333 15.5393 35.882 15.4367 35.7793C15.334 35.6767 15.2827 35.552 15.2827 35.4053V21.0833C15.2827 20.922 15.334 20.79 15.4367 20.6873C15.5393 20.5847 15.6713 20.5333 15.8327 20.5333H17.5707C17.776 20.5333 17.93 20.592 18.0327 20.7093C18.1353 20.812 18.2013 20.8927 18.2307 20.9513L22.4767 28.8713L26.7667 20.9513C26.796 20.8927 26.862 20.812 26.9647 20.7093C27.0673 20.592 27.2213 20.5333 27.4267 20.5333H29.1427C29.304 20.5333 29.436 20.5847 29.5387 20.6873C29.6413 20.79 29.6927 20.922 29.6927 21.0833V35.4053C29.6927 35.552 29.6413 35.6767 29.5387 35.7793C29.436 35.882 29.304 35.9333 29.1427 35.9333H27.2947C27.1333 35.9333 27.0013 35.882 26.8987 35.7793C26.8107 35.6767 26.7667 35.552 26.7667 35.4053V25.8793L23.6867 31.7533C23.6133 31.8853 23.518 32.0027 23.4007 32.1053C23.2833 32.1933 23.1293 32.2373 22.9387 32.2373H22.0367C21.8313 32.2373 21.67 32.1933 21.5527 32.1053C21.45 32.0027 21.362 31.8853 21.2887 31.7533L18.2087 25.8793V35.4053C18.2087 35.552 18.1573 35.6767 18.0547 35.7793C17.952 35.882 17.8273 35.9333 17.6807 35.9333H15.8327ZM34.9847 36.1533C33.6207 36.1533 32.462 35.9187 31.5087 35.4493C30.57 34.9653 29.8513 34.2833 29.3527 33.4033C28.854 32.5087 28.5753 31.438 28.5167 30.1913C28.502 29.59 28.4947 28.9447 28.4947 28.2553C28.4947 27.566 28.502 26.906 28.5167 26.2753C28.5753 25.0433 28.854 23.98 29.3527 23.0853C29.866 22.1907 30.592 21.5087 31.5307 21.0393C32.484 20.5553 33.6353 20.3133 34.9847 20.3133C35.982 20.3133 36.8767 20.4453 37.6687 20.7093C38.4607 20.9733 39.1353 21.34 39.6927 21.8093C40.25 22.264 40.6827 22.7993 40.9907 23.4153C41.2987 24.0313 41.46 24.6987 41.4747 25.4173C41.4893 25.5493 41.4453 25.6593 41.3427 25.7473C41.2547 25.8353 41.1447 25.8793 41.0127 25.8793H38.9227C38.7613 25.8793 38.6293 25.8427 38.5267 25.7693C38.424 25.6813 38.3507 25.542 38.3067 25.3513C38.072 24.3833 37.6687 23.7233 37.0967 23.3713C36.5247 23.0193 35.8133 22.8433 34.9627 22.8433C33.98 22.8433 33.1953 23.122 32.6087 23.6793C32.022 24.222 31.7067 25.124 31.6627 26.3853C31.6187 27.588 31.6187 28.82 31.6627 30.0813C31.7067 31.3427 32.022 32.252 32.6087 32.8093C33.1953 33.352 33.98 33.6233 34.9627 33.6233C35.8133 33.6233 36.5247 33.4473 37.0967 33.0953C37.6687 32.7287 38.072 32.0687 38.3067 31.1153C38.3507 30.91 38.424 30.7707 38.5267 30.6973C38.6293 30.624 38.7613 30.5873 38.9227 30.5873H41.0127C41.1447 30.5873 41.2547 30.6313 41.3427 30.7193C41.4453 30.8073 41.4893 30.9173 41.4747 31.0493C41.46 31.768 41.2987 32.4353 40.9907 33.0513C40.6827 33.6673 40.25 34.21 39.6927 34.6793C39.1353 35.134 38.4607 35.4933 37.6687 35.7573C36.8767 36.0213 35.982 36.1533 34.9847 36.1533Z" fill="#2C2D2E"/>
<path d="M65.439 24V11.31H67.761L72.045 19.104L76.311 11.31H78.597V24H76.059V16.26L72.783 22.092H71.217L67.959 16.314V24H65.439ZM81.1706 24V11.31H83.9606V24H81.1706ZM86.4968 24V11.31H88.5668L94.9028 19.392V11.31H97.4948V24H95.4428L89.0888 15.9V24H86.4968ZM106.331 24.198C104.903 24.198 103.691 23.928 102.695 23.388C101.711 22.848 100.961 22.092 100.445 21.12C99.9295 20.148 99.6715 19.008 99.6715 17.7C99.6715 16.356 99.9355 15.192 100.463 14.208C101.003 13.224 101.777 12.462 102.785 11.922C103.793 11.382 105.005 11.112 106.421 11.112C107.309 11.112 108.149 11.238 108.941 11.49C109.745 11.742 110.399 12.078 110.903 12.498L110.003 14.676C109.451 14.268 108.887 13.98 108.311 13.812C107.735 13.632 107.111 13.542 106.439 13.542C105.155 13.542 104.189 13.902 103.541 14.622C102.905 15.33 102.587 16.356 102.587 17.7C102.587 19.056 102.911 20.082 103.559 20.778C104.219 21.474 105.191 21.822 106.475 21.822C107.159 21.822 107.879 21.714 108.635 21.498V19.014H105.899V16.998H110.939V23.226C110.315 23.538 109.595 23.778 108.779 23.946C107.963 24.114 107.147 24.198 106.331 24.198ZM113.409 24V11.31H119.223C120.579 11.31 121.623 11.604 122.355 12.192C123.099 12.78 123.471 13.584 123.471 14.604C123.471 15.276 123.303 15.858 122.967 16.35C122.631 16.83 122.163 17.19 121.563 17.43C122.283 17.634 122.835 17.994 123.219 18.51C123.615 19.026 123.813 19.662 123.813 20.418C123.813 21.546 123.417 22.428 122.625 23.064C121.845 23.688 120.777 24 119.421 24H113.409ZM116.073 16.53H118.737C120.105 16.53 120.789 16.002 120.789 14.946C120.789 13.902 120.105 13.38 118.737 13.38H116.073V16.53ZM116.073 21.93H119.043C119.763 21.93 120.291 21.792 120.627 21.516C120.963 21.24 121.131 20.82 121.131 20.256C121.131 19.704 120.963 19.29 120.627 19.014C120.291 18.738 119.763 18.6 119.043 18.6H116.073V21.93ZM131.81 24.198C130.562 24.198 129.464 23.928 128.516 23.388C127.58 22.836 126.848 22.074 126.32 21.102C125.804 20.118 125.546 18.966 125.546 17.646C125.546 16.326 125.804 15.18 126.32 14.208C126.848 13.224 127.58 12.462 128.516 11.922C129.452 11.382 130.55 11.112 131.81 11.112C133.07 11.112 134.168 11.382 135.104 11.922C136.052 12.462 136.784 13.224 137.3 14.208C137.828 15.18 138.092 16.32 138.092 17.628C138.092 18.948 137.828 20.1 137.3 21.084C136.784 22.068 136.052 22.836 135.104 23.388C134.168 23.928 133.07 24.198 131.81 24.198ZM131.81 21.822C132.866 21.822 133.688 21.456 134.276 20.724C134.876 19.98 135.176 18.954 135.176 17.646C135.176 16.326 134.882 15.306 134.294 14.586C133.706 13.854 132.878 13.488 131.81 13.488C130.766 13.488 129.944 13.854 129.344 14.586C128.756 15.306 128.462 16.326 128.462 17.646C128.462 18.954 128.756 19.98 129.344 20.724C129.944 21.456 130.766 21.822 131.81 21.822ZM144.787 24.198C143.791 24.198 142.849 24.072 141.961 23.82C141.085 23.568 140.353 23.226 139.765 22.794L140.575 20.598C141.139 20.994 141.781 21.306 142.501 21.534C143.233 21.762 143.995 21.876 144.787 21.876C145.651 21.876 146.269 21.744 146.641 21.48C147.025 21.204 147.217 20.862 147.217 20.454C147.217 20.106 147.085 19.83 146.821 19.626C146.557 19.422 146.095 19.248 145.435 19.104L143.401 18.672C141.133 18.192 139.999 17.016 139.999 15.144C139.999 14.34 140.215 13.638 140.647 13.038C141.079 12.426 141.679 11.952 142.447 11.616C143.227 11.28 144.127 11.112 145.147 11.112C146.023 11.112 146.845 11.238 147.613 11.49C148.381 11.742 149.017 12.096 149.521 12.552L148.711 14.604C147.727 13.824 146.533 13.434 145.129 13.434C144.373 13.434 143.785 13.584 143.365 13.884C142.957 14.172 142.753 14.55 142.753 15.018C142.753 15.366 142.879 15.648 143.131 15.864C143.383 16.08 143.821 16.254 144.445 16.386L146.479 16.818C148.807 17.322 149.971 18.462 149.971 20.238C149.971 21.03 149.755 21.726 149.323 22.326C148.903 22.914 148.303 23.376 147.523 23.712C146.755 24.036 145.843 24.198 144.787 24.198ZM151.782 24V11.31H154.572V16.404H160.476V11.31H163.266V24H160.476V18.726H154.572V24H151.782ZM165.827 24V11.31H168.617V24H165.827ZM79.9909 49.198C78.6229 49.198 77.4529 48.928 76.4809 48.388C75.5089 47.848 74.7589 47.092 74.2309 46.12C73.7149 45.136 73.4569 43.978 73.4569 42.646C73.4569 41.326 73.7149 40.18 74.2309 39.208C74.7589 38.224 75.5089 37.462 76.4809 36.922C77.4529 36.382 78.6229 36.112 79.9909 36.112C80.8309 36.112 81.6349 36.244 82.4029 36.508C83.1709 36.772 83.8009 37.132 84.2929 37.588L83.4289 39.802C82.8889 39.382 82.3429 39.076 81.7909 38.884C81.2509 38.68 80.6809 38.578 80.0809 38.578C78.8689 38.578 77.9509 38.932 77.3269 39.64C76.7149 40.336 76.4089 41.338 76.4089 42.646C76.4089 43.954 76.7149 44.962 77.3269 45.67C77.9509 46.378 78.8689 46.732 80.0809 46.732C80.6809 46.732 81.2509 46.636 81.7909 46.444C82.3429 46.24 82.8889 45.928 83.4289 45.508L84.2929 47.722C83.8009 48.166 83.1709 48.526 82.4029 48.802C81.6349 49.066 80.8309 49.198 79.9909 49.198ZM87.202 49V36.31H95.896V38.488H89.866V41.458H95.5V43.654H89.866V46.822H95.896V49H87.202ZM99.1804 49V36.31H104.976C106.392 36.31 107.484 36.652 108.252 37.336C109.02 38.02 109.404 38.974 109.404 40.198C109.404 41.146 109.158 41.938 108.666 42.574C108.186 43.198 107.496 43.624 106.596 43.852C107.232 44.044 107.754 44.506 108.162 45.238L110.214 49H107.136L104.94 44.95C104.76 44.626 104.538 44.404 104.274 44.284C104.01 44.152 103.698 44.086 103.338 44.086H101.97V49H99.1804ZM101.97 42.07H104.472C105.972 42.07 106.722 41.47 106.722 40.27C106.722 39.082 105.972 38.488 104.472 38.488H101.97V42.07ZM111.09 49L116.922 36.31H119.172L125.004 49H122.196L121.008 46.246H115.086L113.916 49H111.09ZM118.02 39.28L116.022 44.068H120.09L118.056 39.28H118.02ZM127.216 49V36.31H129.538L133.822 44.104L138.088 36.31H140.374V49H137.836V41.26L134.56 47.092H132.994L129.736 41.314V49H127.216ZM144.028 49V36.31H146.818V49H144.028ZM156.59 49.198C155.222 49.198 154.052 48.928 153.08 48.388C152.108 47.848 151.358 47.092 150.83 46.12C150.314 45.136 150.056 43.978 150.056 42.646C150.056 41.326 150.314 40.18 150.83 39.208C151.358 38.224 152.108 37.462 153.08 36.922C154.052 36.382 155.222 36.112 156.59 36.112C157.43 36.112 158.234 36.244 159.002 36.508C159.77 36.772 160.4 37.132 160.892 37.588L160.028 39.802C159.488 39.382 158.942 39.076 158.39 38.884C157.85 38.68 157.28 38.578 156.68 38.578C155.468 38.578 154.55 38.932 153.926 39.64C153.314 40.336 153.008 41.338 153.008 42.646C153.008 43.954 153.314 44.962 153.926 45.67C154.55 46.378 155.468 46.732 156.68 46.732C157.28 46.732 157.85 46.636 158.39 46.444C158.942 46.24 159.488 45.928 160.028 45.508L160.892 47.722C160.4 48.166 159.77 48.526 159.002 48.802C158.234 49.066 157.43 49.198 156.59 49.198Z" fill="#2C2D2E"/>
</svg>
