<svg width="56" height="56" fill="none" xmlns="http://www.w3.org/2000/svg"><circle cx="28" cy="28" r="26.5" stroke="#653819" stroke-width="3"/><path d="M15.333 35.933a.536.536 0 0 1-.396-.154.509.509 0 0 1-.154-.374V21.083c0-.161.051-.293.154-.396a.536.536 0 0 1 .396-.154h1.738c.205 0 .359.059.462.176.102.103.168.184.198.242l4.246 7.92 4.29-7.92c.029-.058.095-.139.198-.242.102-.117.256-.176.462-.176h1.716c.161 0 .293.052.396.154a.536.536 0 0 1 .154.396v14.322a.51.51 0 0 1-.154.374.536.536 0 0 1-.396.154h-1.848a.536.536 0 0 1-.396-.154.555.555 0 0 1-.132-.374V25.88l-3.08 5.874c-.074.132-.169.25-.286.352a.75.75 0 0 1-.462.132h-.902c-.206 0-.367-.044-.484-.132a1.575 1.575 0 0 1-.264-.352l-3.08-5.874v9.526a.51.51 0 0 1-.154.374.51.51 0 0 1-.374.154h-1.848Zm19.152.22c-1.364 0-2.523-.234-3.476-.704-.939-.484-1.658-1.166-2.156-2.046-.499-.894-.778-1.965-.836-3.212a85.104 85.104 0 0 1 0-3.916c.058-1.232.337-2.295.836-3.19a5.064 5.064 0 0 1 2.178-2.046c.953-.484 2.104-.726 3.454-.726.997 0 1.892.132 2.684.396.792.264 1.466.631 2.024 1.1.557.455.99.99 1.298 1.606a4.63 4.63 0 0 1 .484 2.002.36.36 0 0 1-.132.33.448.448 0 0 1-.33.132h-2.09a.665.665 0 0 1-.396-.11c-.103-.088-.176-.227-.22-.418-.235-.968-.638-1.628-1.21-1.98-.572-.352-1.284-.528-2.134-.528-.983 0-1.768.279-2.354.836-.587.543-.902 1.445-.946 2.706a51.753 51.753 0 0 0 0 3.696c.044 1.262.359 2.171.946 2.728.586.543 1.371.814 2.354.814.85 0 1.562-.176 2.134-.528.572-.366.975-1.026 1.21-1.98.044-.205.117-.344.22-.418a.665.665 0 0 1 .396-.11h2.09c.132 0 .242.044.33.132a.36.36 0 0 1 .132.33 4.63 4.63 0 0 1-.484 2.002 5.099 5.099 0 0 1-1.298 1.628c-.558.455-1.232.814-2.024 1.078-.792.264-1.687.396-2.684.396Z" fill="#2C2D2E"/></svg>